<svg xmlns="http://www.w3.org/2000/svg" width="158" height="250" fill="none" viewBox="0 0 158 250"><rect width="157.51" height="250" fill="#000"/><rect width="2" height="66" x="28" y="92.208" fill="red" fill-opacity=".79"/><path fill="red" fill-opacity=".79" d="M80.3467 17.4067L81.9899 18.5468L30.1215 92.0333L28.0001 92.2082L80.3467 17.4067Z"/><path fill="red" fill-opacity=".79" d="M28.3 158.348L29.9431 157.208L82.8646 234.732L82.3196 236.829L28.3 158.348Z"/><path fill="red" fill-opacity=".79" d="M64.3464 17.2082L65.9896 18.3483L14.1212 91.8348L11.9999 92.0097L64.3464 17.2082Z"/><path fill="red" fill-opacity=".79" d="M12.3 158.15L13.9431 157.01L66.8646 234.534L66.3196 236.63L12.3 158.15Z"/><path fill="red" fill-opacity=".79" d="M98.3464 17.2082L99.9896 18.3483L48.1212 91.8348L45.9999 92.0097L98.3464 17.2082Z"/><path fill="red" fill-opacity=".79" d="M46.3 158.15L47.9431 157.01L100.865 234.534L100.32 236.63L46.3 158.15Z"/><rect width="2" height="66" x="135.936" y="159.744" fill="red" fill-opacity=".79" transform="rotate(-179.869 135.936 159.744)"/><path fill="red" fill-opacity=".79" d="M83.418 234.426L81.7774 233.282L133.814 159.915L135.935 159.745L83.418 234.426Z"/><path fill="red" fill-opacity=".79" d="M135.787 93.6038L134.141 94.7403L81.3969 17.0956L81.9467 15L135.787 93.6038Z"/><path fill="red" fill-opacity=".79" d="M99.4177 234.661L97.7772 233.517L149.813 160.15L151.935 159.98L99.4177 234.661Z"/><path fill="red" fill-opacity=".79" d="M151.786 93.8389L150.14 94.9754L97.3964 17.3307L97.9462 15.2351L151.786 93.8389Z"/><path fill="red" fill-opacity=".79" d="M65.4177 234.584L63.7772 233.44L115.813 160.072L117.935 159.902L65.4177 234.584Z"/><path fill="red" fill-opacity=".79" d="M117.786 93.7612L116.14 94.8978L63.3964 17.2531L63.9462 15.1575L117.786 93.7612Z"/></svg>