<svg xmlns="http://www.w3.org/2000/svg" width="167" height="165" fill="none" viewBox="0 0 167 165"><path fill="#7000FF" d="M107.065 25.7276C118.565 30.4276 134.265 31.5276 143.665 39.1276C153.065 46.8276 156.365 61.1276 157.365 77.2276C158.365 93.4276 157.065 111.328 147.265 120.928C137.465 130.528 119.265 131.928 102.465 135.528C85.6646 139.228 70.4646 145.128 55.6646 143.428C40.8646 141.828 26.5646 132.628 19.8646 119.728C13.1646 106.828 14.0646 90.2276 18.4646 77.1276C22.9646 64.1276 31.0646 54.6276 36.9646 45.2276C42.9646 35.8276 46.6646 26.5276 53.6646 19.6276C60.5646 12.8276 70.5646 8.4276 79.3646 10.5276C88.0646 12.5276 95.5646 20.9276 107.065 25.7276Z"/><rect width="69" height="26" x="43" y="63" fill="#262626"/><path fill="#262626" d="M112.2 66L123 74.3478V98L111 89.513L112.2 66Z"/><rect width="69" height="26" x="54" y="72" fill="#262626"/><path fill="#000" d="M43 63L54 69.8478V98L43 88.8696V63Z"/><rect width="52" height="17" x="61" y="77" fill="#000"/><path fill="#000" d="M44 63H112.902L123 72H53.5038L44 63Z"/><path fill="#00FF47" fill-opacity=".79" d="M76.0913 84.6392L77.6147 82.1318H78.9858L76.7388 85.5278L79.0557 89H77.6973L76.1104 86.4292L74.5234 89H73.1587L75.4756 85.5278L73.2285 82.1318H74.5869L76.0913 84.6392ZM98.6636 84.6392L100.187 82.1318H101.558L99.311 85.5278L101.628 89H100.27L98.6826 86.4292L97.0957 89H95.731L98.0479 85.5278L95.8008 82.1318H97.1592L98.6636 84.6392Z"/></svg>