<svg xmlns="http://www.w3.org/2000/svg" width="1009" height="800" fill="none" viewBox="0 0 1009 800"><rect width="1009" height="800" fill="#000"/><rect width="11" height="65" x="62.265" y="15" fill="#fff" transform="rotate(45 62.265 15)"/><rect width="11" height="65" x="16.302" y="22.779" fill="#fff" transform="rotate(-45 16.3022 22.7791)"/><rect width="11" height="65" x="61.963" y="101.442" fill="#fff" transform="rotate(45 61.9627 101.442)"/><rect width="11" height="65" x="16" y="109.221" fill="#fff" transform="rotate(-45 16 109.221)"/><rect width="11" height="65" x="61.963" y="187.442" fill="#fff" transform="rotate(45 61.9627 187.442)"/><rect width="11" height="65" x="16" y="195.221" fill="#fff" transform="rotate(-45 16 195.221)"/><rect width="11" height="65" x="61.963" y="273.442" fill="#fff" transform="rotate(45 61.9627 273.442)"/><rect width="11" height="65" x="16" y="281.221" fill="#fff" transform="rotate(-45 16 281.221)"/><rect width="11" height="65" x="139.265" y="15.442" fill="#fff" transform="rotate(45 139.265 15.442)"/><rect width="11" height="65" x="93.302" y="23.221" fill="#fff" transform="rotate(-45 93.3022 23.2211)"/><rect width="11" height="65" x="138.963" y="101.884" fill="#fff" transform="rotate(45 138.963 101.884)"/><rect width="11" height="65" x="93" y="109.663" fill="#fff" transform="rotate(-45 93 109.663)"/><rect width="11" height="65" x="138.963" y="187.884" fill="#fff" transform="rotate(45 138.963 187.884)"/><rect width="11" height="65" x="93" y="195.663" fill="#fff" transform="rotate(-45 93 195.663)"/><rect width="11" height="65" x="138.963" y="273.884" fill="#fff" transform="rotate(45 138.963 273.884)"/><rect width="11" height="65" x="93" y="281.663" fill="#fff" transform="rotate(-45 93 281.663)"/><rect width="11" height="65" x="217.265" y="15.442" fill="#fff" transform="rotate(45 217.265 15.442)"/><rect width="11" height="65" x="171.302" y="23.221" fill="#fff" transform="rotate(-45 171.302 23.2211)"/><rect width="11" height="65" x="216.963" y="101.884" fill="#fff" transform="rotate(45 216.963 101.884)"/><rect width="11" height="65" x="171" y="109.663" fill="#fff" transform="rotate(-45 171 109.663)"/><rect width="11" height="65" x="216.963" y="187.884" fill="#fff" transform="rotate(45 216.963 187.884)"/><rect width="11" height="65" x="171" y="195.663" fill="#fff" transform="rotate(-45 171 195.663)"/><rect width="11" height="65" x="216.963" y="273.884" fill="#fff" transform="rotate(45 216.963 273.884)"/><rect width="11" height="65" x="171" y="281.663" fill="#fff" transform="rotate(-45 171 281.663)"/><rect width="11" height="65" x="294.265" y="15.442" fill="#fff" transform="rotate(45 294.265 15.442)"/><rect width="11" height="65" x="248.302" y="23.221" fill="#fff" transform="rotate(-45 248.302 23.2211)"/><rect width="11" height="65" x="293.963" y="101.884" fill="#fff" transform="rotate(45 293.963 101.884)"/><rect width="11" height="65" x="248" y="109.663" fill="#fff" transform="rotate(-45 248 109.663)"/><rect width="11" height="65" x="293.963" y="187.884" fill="#fff" transform="rotate(45 293.963 187.884)"/><rect width="11" height="65" x="248" y="195.663" fill="#fff" transform="rotate(-45 248 195.663)"/><rect width="11" height="65" x="293.963" y="273.884" fill="#fff" transform="rotate(45 293.963 273.884)"/><rect width="11" height="65" x="248" y="281.663" fill="#fff" transform="rotate(-45 248 281.663)"/><rect width="11" height="65" x="75.265" y="15" fill="#EA00D9" transform="rotate(45 75.2649 15)"/><rect width="11" height="65" x="29.302" y="22.779" fill="#EA00D9" transform="rotate(-45 29.3022 22.7791)"/><rect width="11" height="65" x="74.963" y="101.442" fill="#EA00D9" transform="rotate(45 74.9627 101.442)"/><rect width="11" height="65" x="29" y="109.221" fill="#EA00D9" transform="rotate(-45 29 109.221)"/><rect width="11" height="65" x="74.963" y="187.442" fill="#EA00D9" transform="rotate(45 74.9627 187.442)"/><rect width="11" height="65" x="29" y="195.221" fill="#EA00D9" transform="rotate(-45 29 195.221)"/><rect width="11" height="65" x="74.963" y="273.442" fill="#EA00D9" transform="rotate(45 74.9627 273.442)"/><rect width="11" height="65" x="29" y="281.221" fill="#EA00D9" transform="rotate(-45 29 281.221)"/><rect width="11" height="65" x="152.265" y="15.442" fill="#EA00D9" transform="rotate(45 152.265 15.442)"/><rect width="11" height="65" x="106.302" y="23.221" fill="#EA00D9" transform="rotate(-45 106.302 23.2211)"/><rect width="11" height="65" x="151.963" y="101.884" fill="#EA00D9" transform="rotate(45 151.963 101.884)"/><rect width="11" height="65" x="106" y="109.663" fill="#EA00D9" transform="rotate(-45 106 109.663)"/><rect width="11" height="65" x="151.963" y="187.884" fill="#EA00D9" transform="rotate(45 151.963 187.884)"/><rect width="11" height="65" x="106" y="195.663" fill="#EA00D9" transform="rotate(-45 106 195.663)"/><rect width="11" height="65" x="151.963" y="273.884" fill="#EA00D9" transform="rotate(45 151.963 273.884)"/><rect width="11" height="65" x="106" y="281.663" fill="#EA00D9" transform="rotate(-45 106 281.663)"/><rect width="11" height="65" x="230.265" y="15.442" fill="#EA00D9" transform="rotate(45 230.265 15.442)"/><rect width="11" height="65" x="184.302" y="23.221" fill="#EA00D9" transform="rotate(-45 184.302 23.2211)"/><rect width="11" height="65" x="229.963" y="101.884" fill="#EA00D9" transform="rotate(45 229.963 101.884)"/><rect width="11" height="65" x="184" y="109.663" fill="#EA00D9" transform="rotate(-45 184 109.663)"/><rect width="11" height="65" x="229.963" y="187.884" fill="#EA00D9" transform="rotate(45 229.963 187.884)"/><rect width="11" height="65" x="184" y="195.663" fill="#EA00D9" transform="rotate(-45 184 195.663)"/><rect width="11" height="65" x="229.963" y="273.884" fill="#EA00D9" transform="rotate(45 229.963 273.884)"/><rect width="11" height="65" x="184" y="281.663" fill="#EA00D9" transform="rotate(-45 184 281.663)"/><rect width="11" height="65" x="307.265" y="15.442" fill="#EA00D9" transform="rotate(45 307.265 15.442)"/><rect width="11" height="65" x="261.302" y="23.221" fill="#EA00D9" transform="rotate(-45 261.302 23.2211)"/><rect width="11" height="65" x="306.963" y="101.884" fill="#EA00D9" transform="rotate(45 306.963 101.884)"/><rect width="11" height="65" x="261" y="109.663" fill="#EA00D9" transform="rotate(-45 261 109.663)"/><rect width="11" height="65" x="306.963" y="187.884" fill="#EA00D9" transform="rotate(45 306.963 187.884)"/><rect width="11" height="65" x="261" y="195.663" fill="#EA00D9" transform="rotate(-45 261 195.663)"/><rect width="11" height="65" x="306.963" y="273.884" fill="#EA00D9" transform="rotate(45 306.963 273.884)"/><rect width="11" height="65" x="261" y="281.663" fill="#EA00D9" transform="rotate(-45 261 281.663)"/><rect width="11" height="65" x="68.265" y="15" fill="#0ABDC6" transform="rotate(45 68.265 15)"/><rect width="11" height="65" x="22.302" y="22.779" fill="#0ABDC6" transform="rotate(-45 22.3022 22.7791)"/><rect width="11" height="65" x="67.963" y="101.442" fill="#0ABDC6" transform="rotate(45 67.9627 101.442)"/><rect width="11" height="65" x="22" y="109.221" fill="#0ABDC6" transform="rotate(-45 22 109.221)"/><rect width="11" height="65" x="67.963" y="187.442" fill="#0ABDC6" transform="rotate(45 67.9627 187.442)"/><rect width="11" height="65" x="22" y="195.221" fill="#0ABDC6" transform="rotate(-45 22 195.221)"/><rect width="11" height="65" x="67.963" y="273.442" fill="#0ABDC6" transform="rotate(45 67.9627 273.442)"/><rect width="11" height="65" x="22" y="281.221" fill="#0ABDC6" transform="rotate(-45 22 281.221)"/><rect width="11" height="65" x="145.265" y="15.442" fill="#0ABDC6" transform="rotate(45 145.265 15.442)"/><rect width="11" height="65" x="99.302" y="23.221" fill="#0ABDC6" transform="rotate(-45 99.3022 23.2211)"/><rect width="11" height="65" x="144.963" y="101.884" fill="#0ABDC6" transform="rotate(45 144.963 101.884)"/><rect width="11" height="65" x="99" y="109.663" fill="#0ABDC6" transform="rotate(-45 99 109.663)"/><rect width="11" height="65" x="144.963" y="187.884" fill="#0ABDC6" transform="rotate(45 144.963 187.884)"/><rect width="11" height="65" x="99" y="195.663" fill="#0ABDC6" transform="rotate(-45 99 195.663)"/><rect width="11" height="65" x="144.963" y="273.884" fill="#0ABDC6" transform="rotate(45 144.963 273.884)"/><rect width="11" height="65" x="99" y="281.663" fill="#0ABDC6" transform="rotate(-45 99 281.663)"/><rect width="11" height="65" x="223.265" y="15.442" fill="#0ABDC6" transform="rotate(45 223.265 15.442)"/><rect width="11" height="65" x="177.302" y="23.221" fill="#0ABDC6" transform="rotate(-45 177.302 23.2211)"/><rect width="11" height="65" x="222.963" y="101.884" fill="#0ABDC6" transform="rotate(45 222.963 101.884)"/><rect width="11" height="65" x="177" y="109.663" fill="#0ABDC6" transform="rotate(-45 177 109.663)"/><rect width="11" height="65" x="222.963" y="187.884" fill="#0ABDC6" transform="rotate(45 222.963 187.884)"/><rect width="11" height="65" x="177" y="195.663" fill="#0ABDC6" transform="rotate(-45 177 195.663)"/><rect width="11" height="65" x="222.963" y="273.884" fill="#0ABDC6" transform="rotate(45 222.963 273.884)"/><rect width="11" height="65" x="177" y="281.663" fill="#0ABDC6" transform="rotate(-45 177 281.663)"/><rect width="11" height="65" x="300.265" y="15.442" fill="#0ABDC6" transform="rotate(45 300.265 15.442)"/><rect width="11" height="65" x="254.302" y="23.221" fill="#0ABDC6" transform="rotate(-45 254.302 23.2211)"/><rect width="11" height="65" x="299.963" y="101.884" fill="#0ABDC6" transform="rotate(45 299.963 101.884)"/><rect width="11" height="65" x="254" y="109.663" fill="#0ABDC6" transform="rotate(-45 254 109.663)"/><rect width="11" height="65" x="299.963" y="187.884" fill="#0ABDC6" transform="rotate(45 299.963 187.884)"/><rect width="11" height="65" x="254" y="195.663" fill="#0ABDC6" transform="rotate(-45 254 195.663)"/><rect width="11" height="65" x="299.963" y="273.884" fill="#0ABDC6" transform="rotate(45 299.963 273.884)"/><rect width="11" height="65" x="254" y="281.663" fill="#0ABDC6" transform="rotate(-45 254 281.663)"/><rect width="11" height="65" x="733.265" y="462" fill="#fff" transform="rotate(45 733.265 462)"/><rect width="11" height="65" x="687.302" y="469.779" fill="#fff" transform="rotate(-45 687.302 469.779)"/><rect width="11" height="65" x="732.963" y="548.442" fill="#fff" transform="rotate(45 732.963 548.442)"/><rect width="11" height="65" x="687" y="556.221" fill="#fff" transform="rotate(-45 687 556.221)"/><rect width="11" height="65" x="732.963" y="634.442" fill="#fff" transform="rotate(45 732.963 634.442)"/><rect width="11" height="65" x="687" y="642.221" fill="#fff" transform="rotate(-45 687 642.221)"/><rect width="11" height="65" x="732.963" y="720.442" fill="#fff" transform="rotate(45 732.963 720.442)"/><rect width="11" height="65" x="687" y="728.221" fill="#fff" transform="rotate(-45 687 728.221)"/><rect width="11" height="65" x="810.265" y="462.442" fill="#fff" transform="rotate(45 810.265 462.442)"/><rect width="11" height="65" x="764.302" y="470.221" fill="#fff" transform="rotate(-45 764.302 470.221)"/><rect width="11" height="65" x="809.963" y="548.884" fill="#fff" transform="rotate(45 809.963 548.884)"/><rect width="11" height="65" x="764" y="556.663" fill="#fff" transform="rotate(-45 764 556.663)"/><rect width="11" height="65" x="809.963" y="634.884" fill="#fff" transform="rotate(45 809.963 634.884)"/><rect width="11" height="65" x="764" y="642.663" fill="#fff" transform="rotate(-45 764 642.663)"/><rect width="11" height="65" x="809.963" y="720.884" fill="#fff" transform="rotate(45 809.963 720.884)"/><rect width="11" height="65" x="764" y="728.663" fill="#fff" transform="rotate(-45 764 728.663)"/><rect width="11" height="65" x="888.265" y="462.442" fill="#fff" transform="rotate(45 888.265 462.442)"/><rect width="11" height="65" x="842.302" y="470.221" fill="#fff" transform="rotate(-45 842.302 470.221)"/><rect width="11" height="65" x="887.963" y="548.884" fill="#fff" transform="rotate(45 887.963 548.884)"/><rect width="11" height="65" x="842" y="556.663" fill="#fff" transform="rotate(-45 842 556.663)"/><rect width="11" height="65" x="887.963" y="634.884" fill="#fff" transform="rotate(45 887.963 634.884)"/><rect width="11" height="65" x="842" y="642.663" fill="#fff" transform="rotate(-45 842 642.663)"/><rect width="11" height="65" x="887.963" y="720.884" fill="#fff" transform="rotate(45 887.963 720.884)"/><rect width="11" height="65" x="842" y="728.663" fill="#fff" transform="rotate(-45 842 728.663)"/><rect width="11" height="65" x="965.265" y="462.442" fill="#fff" transform="rotate(45 965.265 462.442)"/><rect width="11" height="65" x="919.302" y="470.221" fill="#fff" transform="rotate(-45 919.302 470.221)"/><rect width="11" height="65" x="964.963" y="548.884" fill="#fff" transform="rotate(45 964.963 548.884)"/><rect width="11" height="65" x="919" y="556.663" fill="#fff" transform="rotate(-45 919 556.663)"/><rect width="11" height="65" x="964.963" y="634.884" fill="#fff" transform="rotate(45 964.963 634.884)"/><rect width="11" height="65" x="919" y="642.663" fill="#fff" transform="rotate(-45 919 642.663)"/><rect width="11" height="65" x="964.963" y="720.884" fill="#fff" transform="rotate(45 964.963 720.884)"/><rect width="11" height="65" x="919" y="728.663" fill="#fff" transform="rotate(-45 919 728.663)"/><rect width="11" height="65" x="746.265" y="462" fill="#EA00D9" transform="rotate(45 746.265 462)"/><rect width="11" height="65" x="700.302" y="469.779" fill="#EA00D9" transform="rotate(-45 700.302 469.779)"/><rect width="11" height="65" x="745.963" y="548.442" fill="#EA00D9" transform="rotate(45 745.963 548.442)"/><rect width="11" height="65" x="700" y="556.221" fill="#EA00D9" transform="rotate(-45 700 556.221)"/><rect width="11" height="65" x="745.963" y="634.442" fill="#EA00D9" transform="rotate(45 745.963 634.442)"/><rect width="11" height="65" x="700" y="642.221" fill="#EA00D9" transform="rotate(-45 700 642.221)"/><rect width="11" height="65" x="745.963" y="720.442" fill="#EA00D9" transform="rotate(45 745.963 720.442)"/><rect width="11" height="65" x="700" y="728.221" fill="#EA00D9" transform="rotate(-45 700 728.221)"/><rect width="11" height="65" x="823.265" y="462.442" fill="#EA00D9" transform="rotate(45 823.265 462.442)"/><rect width="11" height="65" x="777.302" y="470.221" fill="#EA00D9" transform="rotate(-45 777.302 470.221)"/><rect width="11" height="65" x="822.963" y="548.884" fill="#EA00D9" transform="rotate(45 822.963 548.884)"/><rect width="11" height="65" x="777" y="556.663" fill="#EA00D9" transform="rotate(-45 777 556.663)"/><rect width="11" height="65" x="822.963" y="634.884" fill="#EA00D9" transform="rotate(45 822.963 634.884)"/><rect width="11" height="65" x="777" y="642.663" fill="#EA00D9" transform="rotate(-45 777 642.663)"/><rect width="11" height="65" x="822.963" y="720.884" fill="#EA00D9" transform="rotate(45 822.963 720.884)"/><rect width="11" height="65" x="777" y="728.663" fill="#EA00D9" transform="rotate(-45 777 728.663)"/><rect width="11" height="65" x="901.265" y="462.442" fill="#EA00D9" transform="rotate(45 901.265 462.442)"/><rect width="11" height="65" x="855.302" y="470.221" fill="#EA00D9" transform="rotate(-45 855.302 470.221)"/><rect width="11" height="65" x="900.963" y="548.884" fill="#EA00D9" transform="rotate(45 900.963 548.884)"/><rect width="11" height="65" x="855" y="556.663" fill="#EA00D9" transform="rotate(-45 855 556.663)"/><rect width="11" height="65" x="900.963" y="634.884" fill="#EA00D9" transform="rotate(45 900.963 634.884)"/><rect width="11" height="65" x="855" y="642.663" fill="#EA00D9" transform="rotate(-45 855 642.663)"/><rect width="11" height="65" x="900.963" y="720.884" fill="#EA00D9" transform="rotate(45 900.963 720.884)"/><rect width="11" height="65" x="855" y="728.663" fill="#EA00D9" transform="rotate(-45 855 728.663)"/><rect width="11" height="65" x="978.265" y="462.442" fill="#EA00D9" transform="rotate(45 978.265 462.442)"/><rect width="11" height="65" x="932.302" y="470.221" fill="#EA00D9" transform="rotate(-45 932.302 470.221)"/><rect width="11" height="65" x="977.963" y="548.884" fill="#EA00D9" transform="rotate(45 977.963 548.884)"/><rect width="11" height="65" x="932" y="556.663" fill="#EA00D9" transform="rotate(-45 932 556.663)"/><rect width="11" height="65" x="977.963" y="634.884" fill="#EA00D9" transform="rotate(45 977.963 634.884)"/><rect width="11" height="65" x="932" y="642.663" fill="#EA00D9" transform="rotate(-45 932 642.663)"/><rect width="11" height="65" x="977.963" y="720.884" fill="#EA00D9" transform="rotate(45 977.963 720.884)"/><rect width="11" height="65" x="932" y="728.663" fill="#EA00D9" transform="rotate(-45 932 728.663)"/><rect width="11" height="65" x="739.265" y="462" fill="#0ABDC6" transform="rotate(45 739.265 462)"/><rect width="11" height="65" x="693.302" y="469.779" fill="#0ABDC6" transform="rotate(-45 693.302 469.779)"/><rect width="11" height="65" x="738.963" y="548.442" fill="#0ABDC6" transform="rotate(45 738.963 548.442)"/><rect width="11" height="65" x="693" y="556.221" fill="#0ABDC6" transform="rotate(-45 693 556.221)"/><rect width="11" height="65" x="738.963" y="634.442" fill="#0ABDC6" transform="rotate(45 738.963 634.442)"/><rect width="11" height="65" x="693" y="642.221" fill="#0ABDC6" transform="rotate(-45 693 642.221)"/><rect width="11" height="65" x="738.963" y="720.442" fill="#0ABDC6" transform="rotate(45 738.963 720.442)"/><rect width="11" height="65" x="693" y="728.221" fill="#0ABDC6" transform="rotate(-45 693 728.221)"/><rect width="11" height="65" x="816.265" y="462.442" fill="#0ABDC6" transform="rotate(45 816.265 462.442)"/><rect width="11" height="65" x="770.302" y="470.221" fill="#0ABDC6" transform="rotate(-45 770.302 470.221)"/><rect width="11" height="65" x="815.963" y="548.884" fill="#0ABDC6" transform="rotate(45 815.963 548.884)"/><rect width="11" height="65" x="770" y="556.663" fill="#0ABDC6" transform="rotate(-45 770 556.663)"/><rect width="11" height="65" x="815.963" y="634.884" fill="#0ABDC6" transform="rotate(45 815.963 634.884)"/><rect width="11" height="65" x="770" y="642.663" fill="#0ABDC6" transform="rotate(-45 770 642.663)"/><rect width="11" height="65" x="815.963" y="720.884" fill="#0ABDC6" transform="rotate(45 815.963 720.884)"/><rect width="11" height="65" x="770" y="728.663" fill="#0ABDC6" transform="rotate(-45 770 728.663)"/><rect width="11" height="65" x="894.265" y="462.442" fill="#0ABDC6" transform="rotate(45 894.265 462.442)"/><rect width="11" height="65" x="848.302" y="470.221" fill="#0ABDC6" transform="rotate(-45 848.302 470.221)"/><rect width="11" height="65" x="893.963" y="548.884" fill="#0ABDC6" transform="rotate(45 893.963 548.884)"/><rect width="11" height="65" x="848" y="556.663" fill="#0ABDC6" transform="rotate(-45 848 556.663)"/><rect width="11" height="65" x="893.963" y="634.884" fill="#0ABDC6" transform="rotate(45 893.963 634.884)"/><rect width="11" height="65" x="848" y="642.663" fill="#0ABDC6" transform="rotate(-45 848 642.663)"/><rect width="11" height="65" x="893.963" y="720.884" fill="#0ABDC6" transform="rotate(45 893.963 720.884)"/><rect width="11" height="65" x="848" y="728.663" fill="#0ABDC6" transform="rotate(-45 848 728.663)"/><rect width="11" height="65" x="971.265" y="462.442" fill="#0ABDC6" transform="rotate(45 971.265 462.442)"/><rect width="11" height="65" x="925.302" y="470.221" fill="#0ABDC6" transform="rotate(-45 925.302 470.221)"/><rect width="11" height="65" x="970.963" y="548.884" fill="#0ABDC6" transform="rotate(45 970.963 548.884)"/><rect width="11" height="65" x="925" y="556.663" fill="#0ABDC6" transform="rotate(-45 925 556.663)"/><rect width="11" height="65" x="970.963" y="634.884" fill="#0ABDC6" transform="rotate(45 970.963 634.884)"/><rect width="11" height="65" x="925" y="642.663" fill="#0ABDC6" transform="rotate(-45 925 642.663)"/><rect width="11" height="65" x="970.963" y="720.884" fill="#0ABDC6" transform="rotate(45 970.963 720.884)"/><rect width="11" height="65" x="925" y="728.663" fill="#0ABDC6" transform="rotate(-45 925 728.663)"/></svg>