<svg width="1300" height="800" viewBox="0 0 1300 800" fill="none" xmlns="http://www.w3.org/2000/svg">
<rect width="1300" height="800" fill="black"/>
<rect x="62.265" y="15" width="11" height="65" transform="rotate(45 62.265 15)" fill="white"/>
<rect x="16.3022" y="22.7791" width="11" height="65" transform="rotate(-45 16.3022 22.7791)" fill="white"/>
<rect x="61.9627" y="101.442" width="11" height="65" transform="rotate(45 61.9627 101.442)" fill="white"/>
<rect x="16" y="109.221" width="11" height="65" transform="rotate(-45 16 109.221)" fill="white"/>
<rect x="61.9627" y="187.442" width="11" height="65" transform="rotate(45 61.9627 187.442)" fill="white"/>
<rect x="16" y="195.221" width="11" height="65" transform="rotate(-45 16 195.221)" fill="white"/>
<rect x="61.9627" y="273.442" width="11" height="65" transform="rotate(45 61.9627 273.442)" fill="white"/>
<rect x="16" y="281.221" width="11" height="65" transform="rotate(-45 16 281.221)" fill="white"/>
<rect x="139.265" y="15.442" width="11" height="65" transform="rotate(45 139.265 15.442)" fill="white"/>
<rect x="93.3022" y="23.2211" width="11" height="65" transform="rotate(-45 93.3022 23.2211)" fill="white"/>
<rect x="138.963" y="101.884" width="11" height="65" transform="rotate(45 138.963 101.884)" fill="white"/>
<rect x="93" y="109.663" width="11" height="65" transform="rotate(-45 93 109.663)" fill="white"/>
<rect x="138.963" y="187.884" width="11" height="65" transform="rotate(45 138.963 187.884)" fill="white"/>
<rect x="93" y="195.663" width="11" height="65" transform="rotate(-45 93 195.663)" fill="white"/>
<rect x="138.963" y="273.884" width="11" height="65" transform="rotate(45 138.963 273.884)" fill="white"/>
<rect x="93" y="281.663" width="11" height="65" transform="rotate(-45 93 281.663)" fill="white"/>
<rect x="217.265" y="15.442" width="11" height="65" transform="rotate(45 217.265 15.442)" fill="white"/>
<rect x="171.302" y="23.2211" width="11" height="65" transform="rotate(-45 171.302 23.2211)" fill="white"/>
<rect x="216.963" y="101.884" width="11" height="65" transform="rotate(45 216.963 101.884)" fill="white"/>
<rect x="171" y="109.663" width="11" height="65" transform="rotate(-45 171 109.663)" fill="white"/>
<rect x="216.963" y="187.884" width="11" height="65" transform="rotate(45 216.963 187.884)" fill="white"/>
<rect x="171" y="195.663" width="11" height="65" transform="rotate(-45 171 195.663)" fill="white"/>
<rect x="216.963" y="273.884" width="11" height="65" transform="rotate(45 216.963 273.884)" fill="white"/>
<rect x="171" y="281.663" width="11" height="65" transform="rotate(-45 171 281.663)" fill="white"/>
<rect x="294.265" y="15.442" width="11" height="65" transform="rotate(45 294.265 15.442)" fill="white"/>
<rect x="248.302" y="23.2211" width="11" height="65" transform="rotate(-45 248.302 23.2211)" fill="white"/>
<rect x="293.963" y="101.884" width="11" height="65" transform="rotate(45 293.963 101.884)" fill="white"/>
<rect x="248" y="109.663" width="11" height="65" transform="rotate(-45 248 109.663)" fill="white"/>
<rect x="293.963" y="187.884" width="11" height="65" transform="rotate(45 293.963 187.884)" fill="white"/>
<rect x="248" y="195.663" width="11" height="65" transform="rotate(-45 248 195.663)" fill="white"/>
<rect x="293.963" y="273.884" width="11" height="65" transform="rotate(45 293.963 273.884)" fill="white"/>
<rect x="248" y="281.663" width="11" height="65" transform="rotate(-45 248 281.663)" fill="white"/>
<rect x="75.2649" y="15" width="11" height="65" transform="rotate(45 75.2649 15)" fill="#EA00D9"/>
<rect x="29.3022" y="22.7791" width="11" height="65" transform="rotate(-45 29.3022 22.7791)" fill="#EA00D9"/>
<rect x="74.9627" y="101.442" width="11" height="65" transform="rotate(45 74.9627 101.442)" fill="#EA00D9"/>
<rect x="29" y="109.221" width="11" height="65" transform="rotate(-45 29 109.221)" fill="#EA00D9"/>
<rect x="74.9627" y="187.442" width="11" height="65" transform="rotate(45 74.9627 187.442)" fill="#EA00D9"/>
<rect x="29" y="195.221" width="11" height="65" transform="rotate(-45 29 195.221)" fill="#EA00D9"/>
<rect x="74.9627" y="273.442" width="11" height="65" transform="rotate(45 74.9627 273.442)" fill="#EA00D9"/>
<rect x="29" y="281.221" width="11" height="65" transform="rotate(-45 29 281.221)" fill="#EA00D9"/>
<rect x="152.265" y="15.442" width="11" height="65" transform="rotate(45 152.265 15.442)" fill="#EA00D9"/>
<rect x="106.302" y="23.2211" width="11" height="65" transform="rotate(-45 106.302 23.2211)" fill="#EA00D9"/>
<rect x="151.963" y="101.884" width="11" height="65" transform="rotate(45 151.963 101.884)" fill="#EA00D9"/>
<rect x="106" y="109.663" width="11" height="65" transform="rotate(-45 106 109.663)" fill="#EA00D9"/>
<rect x="151.963" y="187.884" width="11" height="65" transform="rotate(45 151.963 187.884)" fill="#EA00D9"/>
<rect x="106" y="195.663" width="11" height="65" transform="rotate(-45 106 195.663)" fill="#EA00D9"/>
<rect x="151.963" y="273.884" width="11" height="65" transform="rotate(45 151.963 273.884)" fill="#EA00D9"/>
<rect x="106" y="281.663" width="11" height="65" transform="rotate(-45 106 281.663)" fill="#EA00D9"/>
<rect x="230.265" y="15.442" width="11" height="65" transform="rotate(45 230.265 15.442)" fill="#EA00D9"/>
<rect x="184.302" y="23.2211" width="11" height="65" transform="rotate(-45 184.302 23.2211)" fill="#EA00D9"/>
<rect x="229.963" y="101.884" width="11" height="65" transform="rotate(45 229.963 101.884)" fill="#EA00D9"/>
<rect x="184" y="109.663" width="11" height="65" transform="rotate(-45 184 109.663)" fill="#EA00D9"/>
<rect x="229.963" y="187.884" width="11" height="65" transform="rotate(45 229.963 187.884)" fill="#EA00D9"/>
<rect x="184" y="195.663" width="11" height="65" transform="rotate(-45 184 195.663)" fill="#EA00D9"/>
<rect x="229.963" y="273.884" width="11" height="65" transform="rotate(45 229.963 273.884)" fill="#EA00D9"/>
<rect x="184" y="281.663" width="11" height="65" transform="rotate(-45 184 281.663)" fill="#EA00D9"/>
<rect x="307.265" y="15.442" width="11" height="65" transform="rotate(45 307.265 15.442)" fill="#EA00D9"/>
<rect x="261.302" y="23.2211" width="11" height="65" transform="rotate(-45 261.302 23.2211)" fill="#EA00D9"/>
<rect x="306.963" y="101.884" width="11" height="65" transform="rotate(45 306.963 101.884)" fill="#EA00D9"/>
<rect x="261" y="109.663" width="11" height="65" transform="rotate(-45 261 109.663)" fill="#EA00D9"/>
<rect x="306.963" y="187.884" width="11" height="65" transform="rotate(45 306.963 187.884)" fill="#EA00D9"/>
<rect x="261" y="195.663" width="11" height="65" transform="rotate(-45 261 195.663)" fill="#EA00D9"/>
<rect x="306.963" y="273.884" width="11" height="65" transform="rotate(45 306.963 273.884)" fill="#EA00D9"/>
<rect x="261" y="281.663" width="11" height="65" transform="rotate(-45 261 281.663)" fill="#EA00D9"/>
<rect x="68.265" y="15" width="11" height="65" transform="rotate(45 68.265 15)" fill="#0ABDC6"/>
<rect x="22.3022" y="22.7791" width="11" height="65" transform="rotate(-45 22.3022 22.7791)" fill="#0ABDC6"/>
<rect x="67.9627" y="101.442" width="11" height="65" transform="rotate(45 67.9627 101.442)" fill="#0ABDC6"/>
<rect x="22" y="109.221" width="11" height="65" transform="rotate(-45 22 109.221)" fill="#0ABDC6"/>
<rect x="67.9627" y="187.442" width="11" height="65" transform="rotate(45 67.9627 187.442)" fill="#0ABDC6"/>
<rect x="22" y="195.221" width="11" height="65" transform="rotate(-45 22 195.221)" fill="#0ABDC6"/>
<rect x="67.9627" y="273.442" width="11" height="65" transform="rotate(45 67.9627 273.442)" fill="#0ABDC6"/>
<rect x="22" y="281.221" width="11" height="65" transform="rotate(-45 22 281.221)" fill="#0ABDC6"/>
<rect x="145.265" y="15.442" width="11" height="65" transform="rotate(45 145.265 15.442)" fill="#0ABDC6"/>
<rect x="99.3022" y="23.2211" width="11" height="65" transform="rotate(-45 99.3022 23.2211)" fill="#0ABDC6"/>
<rect x="144.963" y="101.884" width="11" height="65" transform="rotate(45 144.963 101.884)" fill="#0ABDC6"/>
<rect x="99" y="109.663" width="11" height="65" transform="rotate(-45 99 109.663)" fill="#0ABDC6"/>
<rect x="144.963" y="187.884" width="11" height="65" transform="rotate(45 144.963 187.884)" fill="#0ABDC6"/>
<rect x="99" y="195.663" width="11" height="65" transform="rotate(-45 99 195.663)" fill="#0ABDC6"/>
<rect x="144.963" y="273.884" width="11" height="65" transform="rotate(45 144.963 273.884)" fill="#0ABDC6"/>
<rect x="99" y="281.663" width="11" height="65" transform="rotate(-45 99 281.663)" fill="#0ABDC6"/>
<rect x="223.265" y="15.442" width="11" height="65" transform="rotate(45 223.265 15.442)" fill="#0ABDC6"/>
<rect x="177.302" y="23.2211" width="11" height="65" transform="rotate(-45 177.302 23.2211)" fill="#0ABDC6"/>
<rect x="222.963" y="101.884" width="11" height="65" transform="rotate(45 222.963 101.884)" fill="#0ABDC6"/>
<rect x="177" y="109.663" width="11" height="65" transform="rotate(-45 177 109.663)" fill="#0ABDC6"/>
<rect x="222.963" y="187.884" width="11" height="65" transform="rotate(45 222.963 187.884)" fill="#0ABDC6"/>
<rect x="177" y="195.663" width="11" height="65" transform="rotate(-45 177 195.663)" fill="#0ABDC6"/>
<rect x="222.963" y="273.884" width="11" height="65" transform="rotate(45 222.963 273.884)" fill="#0ABDC6"/>
<rect x="177" y="281.663" width="11" height="65" transform="rotate(-45 177 281.663)" fill="#0ABDC6"/>
<rect x="300.265" y="15.442" width="11" height="65" transform="rotate(45 300.265 15.442)" fill="#0ABDC6"/>
<rect x="254.302" y="23.2211" width="11" height="65" transform="rotate(-45 254.302 23.2211)" fill="#0ABDC6"/>
<rect x="299.963" y="101.884" width="11" height="65" transform="rotate(45 299.963 101.884)" fill="#0ABDC6"/>
<rect x="254" y="109.663" width="11" height="65" transform="rotate(-45 254 109.663)" fill="#0ABDC6"/>
<rect x="299.963" y="187.884" width="11" height="65" transform="rotate(45 299.963 187.884)" fill="#0ABDC6"/>
<rect x="254" y="195.663" width="11" height="65" transform="rotate(-45 254 195.663)" fill="#0ABDC6"/>
<rect x="299.963" y="273.884" width="11" height="65" transform="rotate(45 299.963 273.884)" fill="#0ABDC6"/>
<rect x="254" y="281.663" width="11" height="65" transform="rotate(-45 254 281.663)" fill="#0ABDC6"/>
<rect x="1027.26" y="466" width="11" height="65" transform="rotate(45 1027.26 466)" fill="white"/>
<rect x="981.302" y="473.779" width="11" height="65" transform="rotate(-45 981.302 473.779)" fill="white"/>
<rect x="1026.96" y="552.442" width="11" height="65" transform="rotate(45 1026.96 552.442)" fill="white"/>
<rect x="981" y="560.221" width="11" height="65" transform="rotate(-45 981 560.221)" fill="white"/>
<rect x="1026.96" y="638.442" width="11" height="65" transform="rotate(45 1026.96 638.442)" fill="white"/>
<rect x="981" y="646.221" width="11" height="65" transform="rotate(-45 981 646.221)" fill="white"/>
<rect x="1026.96" y="724.442" width="11" height="65" transform="rotate(45 1026.96 724.442)" fill="white"/>
<rect x="981" y="732.221" width="11" height="65" transform="rotate(-45 981 732.221)" fill="white"/>
<rect x="1104.26" y="466.442" width="11" height="65" transform="rotate(45 1104.26 466.442)" fill="white"/>
<rect x="1058.3" y="474.221" width="11" height="65" transform="rotate(-45 1058.3 474.221)" fill="white"/>
<rect x="1103.96" y="552.884" width="11" height="65" transform="rotate(45 1103.96 552.884)" fill="white"/>
<rect x="1058" y="560.663" width="11" height="65" transform="rotate(-45 1058 560.663)" fill="white"/>
<rect x="1103.96" y="638.884" width="11" height="65" transform="rotate(45 1103.96 638.884)" fill="white"/>
<rect x="1058" y="646.663" width="11" height="65" transform="rotate(-45 1058 646.663)" fill="white"/>
<rect x="1103.96" y="724.884" width="11" height="65" transform="rotate(45 1103.96 724.884)" fill="white"/>
<rect x="1058" y="732.663" width="11" height="65" transform="rotate(-45 1058 732.663)" fill="white"/>
<rect x="1182.26" y="466.442" width="11" height="65" transform="rotate(45 1182.26 466.442)" fill="white"/>
<rect x="1136.3" y="474.221" width="11" height="65" transform="rotate(-45 1136.3 474.221)" fill="white"/>
<rect x="1181.96" y="552.884" width="11" height="65" transform="rotate(45 1181.96 552.884)" fill="white"/>
<rect x="1136" y="560.663" width="11" height="65" transform="rotate(-45 1136 560.663)" fill="white"/>
<rect x="1181.96" y="638.884" width="11" height="65" transform="rotate(45 1181.96 638.884)" fill="white"/>
<rect x="1136" y="646.663" width="11" height="65" transform="rotate(-45 1136 646.663)" fill="white"/>
<rect x="1181.96" y="724.884" width="11" height="65" transform="rotate(45 1181.96 724.884)" fill="white"/>
<rect x="1136" y="732.663" width="11" height="65" transform="rotate(-45 1136 732.663)" fill="white"/>
<rect x="1259.26" y="466.442" width="11" height="65" transform="rotate(45 1259.26 466.442)" fill="white"/>
<rect x="1213.3" y="474.221" width="11" height="65" transform="rotate(-45 1213.3 474.221)" fill="white"/>
<rect x="1258.96" y="552.884" width="11" height="65" transform="rotate(45 1258.96 552.884)" fill="white"/>
<rect x="1213" y="560.663" width="11" height="65" transform="rotate(-45 1213 560.663)" fill="white"/>
<rect x="1258.96" y="638.884" width="11" height="65" transform="rotate(45 1258.96 638.884)" fill="white"/>
<rect x="1213" y="646.663" width="11" height="65" transform="rotate(-45 1213 646.663)" fill="white"/>
<rect x="1258.96" y="724.884" width="11" height="65" transform="rotate(45 1258.96 724.884)" fill="white"/>
<rect x="1213" y="732.663" width="11" height="65" transform="rotate(-45 1213 732.663)" fill="white"/>
<rect x="1040.26" y="466" width="11" height="65" transform="rotate(45 1040.26 466)" fill="#EA00D9"/>
<rect x="994.302" y="473.779" width="11" height="65" transform="rotate(-45 994.302 473.779)" fill="#EA00D9"/>
<rect x="1039.96" y="552.442" width="11" height="65" transform="rotate(45 1039.96 552.442)" fill="#EA00D9"/>
<rect x="994" y="560.221" width="11" height="65" transform="rotate(-45 994 560.221)" fill="#EA00D9"/>
<rect x="1039.96" y="638.442" width="11" height="65" transform="rotate(45 1039.96 638.442)" fill="#EA00D9"/>
<rect x="994" y="646.221" width="11" height="65" transform="rotate(-45 994 646.221)" fill="#EA00D9"/>
<rect x="1039.96" y="724.442" width="11" height="65" transform="rotate(45 1039.96 724.442)" fill="#EA00D9"/>
<rect x="994" y="732.221" width="11" height="65" transform="rotate(-45 994 732.221)" fill="#EA00D9"/>
<rect x="1117.26" y="466.442" width="11" height="65" transform="rotate(45 1117.26 466.442)" fill="#EA00D9"/>
<rect x="1071.3" y="474.221" width="11" height="65" transform="rotate(-45 1071.3 474.221)" fill="#EA00D9"/>
<rect x="1116.96" y="552.884" width="11" height="65" transform="rotate(45 1116.96 552.884)" fill="#EA00D9"/>
<rect x="1071" y="560.663" width="11" height="65" transform="rotate(-45 1071 560.663)" fill="#EA00D9"/>
<rect x="1116.96" y="638.884" width="11" height="65" transform="rotate(45 1116.96 638.884)" fill="#EA00D9"/>
<rect x="1071" y="646.663" width="11" height="65" transform="rotate(-45 1071 646.663)" fill="#EA00D9"/>
<rect x="1116.96" y="724.884" width="11" height="65" transform="rotate(45 1116.96 724.884)" fill="#EA00D9"/>
<rect x="1071" y="732.663" width="11" height="65" transform="rotate(-45 1071 732.663)" fill="#EA00D9"/>
<rect x="1195.26" y="466.442" width="11" height="65" transform="rotate(45 1195.26 466.442)" fill="#EA00D9"/>
<rect x="1149.3" y="474.221" width="11" height="65" transform="rotate(-45 1149.3 474.221)" fill="#EA00D9"/>
<rect x="1194.96" y="552.884" width="11" height="65" transform="rotate(45 1194.96 552.884)" fill="#EA00D9"/>
<rect x="1149" y="560.663" width="11" height="65" transform="rotate(-45 1149 560.663)" fill="#EA00D9"/>
<rect x="1194.96" y="638.884" width="11" height="65" transform="rotate(45 1194.96 638.884)" fill="#EA00D9"/>
<rect x="1149" y="646.663" width="11" height="65" transform="rotate(-45 1149 646.663)" fill="#EA00D9"/>
<rect x="1194.96" y="724.884" width="11" height="65" transform="rotate(45 1194.96 724.884)" fill="#EA00D9"/>
<rect x="1149" y="732.663" width="11" height="65" transform="rotate(-45 1149 732.663)" fill="#EA00D9"/>
<rect x="1272.26" y="466.442" width="11" height="65" transform="rotate(45 1272.26 466.442)" fill="#EA00D9"/>
<rect x="1226.3" y="474.221" width="11" height="65" transform="rotate(-45 1226.3 474.221)" fill="#EA00D9"/>
<rect x="1271.96" y="552.884" width="11" height="65" transform="rotate(45 1271.96 552.884)" fill="#EA00D9"/>
<rect x="1226" y="560.663" width="11" height="65" transform="rotate(-45 1226 560.663)" fill="#EA00D9"/>
<rect x="1271.96" y="638.884" width="11" height="65" transform="rotate(45 1271.96 638.884)" fill="#EA00D9"/>
<rect x="1226" y="646.663" width="11" height="65" transform="rotate(-45 1226 646.663)" fill="#EA00D9"/>
<rect x="1271.96" y="724.884" width="11" height="65" transform="rotate(45 1271.96 724.884)" fill="#EA00D9"/>
<rect x="1226" y="732.663" width="11" height="65" transform="rotate(-45 1226 732.663)" fill="#EA00D9"/>
<rect x="1033.26" y="466" width="11" height="65" transform="rotate(45 1033.26 466)" fill="#0ABDC6"/>
<rect x="987.302" y="473.779" width="11" height="65" transform="rotate(-45 987.302 473.779)" fill="#0ABDC6"/>
<rect x="1032.96" y="552.442" width="11" height="65" transform="rotate(45 1032.96 552.442)" fill="#0ABDC6"/>
<rect x="987" y="560.221" width="11" height="65" transform="rotate(-45 987 560.221)" fill="#0ABDC6"/>
<rect x="1032.96" y="638.442" width="11" height="65" transform="rotate(45 1032.96 638.442)" fill="#0ABDC6"/>
<rect x="987" y="646.221" width="11" height="65" transform="rotate(-45 987 646.221)" fill="#0ABDC6"/>
<rect x="1032.96" y="724.442" width="11" height="65" transform="rotate(45 1032.96 724.442)" fill="#0ABDC6"/>
<rect x="987" y="732.221" width="11" height="65" transform="rotate(-45 987 732.221)" fill="#0ABDC6"/>
<rect x="1110.26" y="466.442" width="11" height="65" transform="rotate(45 1110.26 466.442)" fill="#0ABDC6"/>
<rect x="1064.3" y="474.221" width="11" height="65" transform="rotate(-45 1064.3 474.221)" fill="#0ABDC6"/>
<rect x="1109.96" y="552.884" width="11" height="65" transform="rotate(45 1109.96 552.884)" fill="#0ABDC6"/>
<rect x="1064" y="560.663" width="11" height="65" transform="rotate(-45 1064 560.663)" fill="#0ABDC6"/>
<rect x="1109.96" y="638.884" width="11" height="65" transform="rotate(45 1109.96 638.884)" fill="#0ABDC6"/>
<rect x="1064" y="646.663" width="11" height="65" transform="rotate(-45 1064 646.663)" fill="#0ABDC6"/>
<rect x="1109.96" y="724.884" width="11" height="65" transform="rotate(45 1109.96 724.884)" fill="#0ABDC6"/>
<rect x="1064" y="732.663" width="11" height="65" transform="rotate(-45 1064 732.663)" fill="#0ABDC6"/>
<rect x="1188.26" y="466.442" width="11" height="65" transform="rotate(45 1188.26 466.442)" fill="#0ABDC6"/>
<rect x="1142.3" y="474.221" width="11" height="65" transform="rotate(-45 1142.3 474.221)" fill="#0ABDC6"/>
<rect x="1187.96" y="552.884" width="11" height="65" transform="rotate(45 1187.96 552.884)" fill="#0ABDC6"/>
<rect x="1142" y="560.663" width="11" height="65" transform="rotate(-45 1142 560.663)" fill="#0ABDC6"/>
<rect x="1187.96" y="638.884" width="11" height="65" transform="rotate(45 1187.96 638.884)" fill="#0ABDC6"/>
<rect x="1142" y="646.663" width="11" height="65" transform="rotate(-45 1142 646.663)" fill="#0ABDC6"/>
<rect x="1187.96" y="724.884" width="11" height="65" transform="rotate(45 1187.96 724.884)" fill="#0ABDC6"/>
<rect x="1142" y="732.663" width="11" height="65" transform="rotate(-45 1142 732.663)" fill="#0ABDC6"/>
<rect x="1265.26" y="466.442" width="11" height="65" transform="rotate(45 1265.26 466.442)" fill="#0ABDC6"/>
<rect x="1219.3" y="474.221" width="11" height="65" transform="rotate(-45 1219.3 474.221)" fill="#0ABDC6"/>
<rect x="1264.96" y="552.884" width="11" height="65" transform="rotate(45 1264.96 552.884)" fill="#0ABDC6"/>
<rect x="1219" y="560.663" width="11" height="65" transform="rotate(-45 1219 560.663)" fill="#0ABDC6"/>
<rect x="1264.96" y="638.884" width="11" height="65" transform="rotate(45 1264.96 638.884)" fill="#0ABDC6"/>
<rect x="1219" y="646.663" width="11" height="65" transform="rotate(-45 1219 646.663)" fill="#0ABDC6"/>
<rect x="1264.96" y="724.884" width="11" height="65" transform="rotate(45 1264.96 724.884)" fill="#0ABDC6"/>
<rect x="1219" y="732.663" width="11" height="65" transform="rotate(-45 1219 732.663)" fill="#0ABDC6"/>
</svg>
