<svg xmlns="http://www.w3.org/2000/svg" width="72" height="72" fill="none" viewBox="0 0 72 72"><rect width="72" height="72" fill="#000"/><path fill="#B917D3" d="M28 9L31.4641 24.75H24.5359L28 9Z"/><path fill="#7000FF" d="M36 7L39.4641 22.75H32.5359L36 7Z"/><path fill="#B917D3" d="M28 9L31.4641 24.75H24.5359L28 9Z"/><ellipse cx="36" cy="38" fill="#ECE4C8" rx="20" ry="19"/><path fill="red" d="M46.8327 6.96125L43.2613 23.1293L38.3813 21.4644L46.8327 6.96125Z"/><path fill="#000" d="M18 28H51.1429L56 31H23.4286L18 28Z"/><ellipse cx="36" cy="49" fill="#000" rx="6" ry="5"/><ellipse cx="33" cy="51" fill="red" rx="3" ry="6"/><path fill="#262626" d="M18 37H50V45L18 44V37Z"/><rect width="32" height="16" x="24" y="31" fill="#262626"/><path fill="#000" d="M18 28L24 30.7143V47L18 44.2857V28Z"/><rect width="27" height="13" x="27" y="32" fill="#000"/><rect width="1.518" height="9.252" fill="#00FF47" fill-opacity=".79" transform="matrix(0.79396 0.607971 -0.769445 0.638713 35.8155 35.054)"/><rect width="1.509" height="10.071" fill="#00FF47" fill-opacity=".79" transform="matrix(-0.776375 0.630271 -0.787359 -0.616495 51.1704 40.8184)"/><rect width="1.509" height="10.071" fill="#00FF47" transform="matrix(-0.776375 0.630271 -0.787359 -0.616495 37.4022 40.8203)"/><rect width="1.518" height="9.252" fill="#00FF47" transform="matrix(0.79396 0.607971 -0.769445 0.638713 49.5837 35.0522)"/><path fill="#262626" d="M18 37H50V45L18 44V37Z"/><rect width="32" height="16" x="24" y="31" fill="#262626"/><path fill="#000" d="M18 28L24 30.7143V47L18 44.2857V28Z"/><rect width="27" height="13" x="27" y="32" fill="#000"/><rect width="1.518" height="9.252" fill="red" fill-opacity=".79" transform="matrix(0.79396 0.607971 -0.769445 0.638713 35.8155 35.054)"/><rect width="1.509" height="10.071" fill="red" fill-opacity=".79" transform="matrix(-0.776375 0.630271 -0.787359 -0.616495 51.1704 40.8184)"/><rect width="1.509" height="10.071" fill="red" fill-opacity=".79" transform="matrix(-0.776375 0.630271 -0.787359 -0.616495 37.4022 40.8203)"/><rect width="1.518" height="9.252" fill="red" fill-opacity=".79" transform="matrix(0.79396 0.607971 -0.769445 0.638713 49.5837 35.0522)"/></svg>