<svg width="512" height="512" viewBox="0 0 512 512" fill="none" xmlns="http://www.w3.org/2000/svg">
<g clip-path="url(#clip0_160_2)">
<rect width="17.3162" height="105.789" transform="matrix(0.774076 0.633093 -0.746832 0.665013 183.617 161.062)" fill="#00FF47" fill-opacity="0.79"/>
<rect width="17.2376" height="114.926" transform="matrix(-0.75413 0.656725 -0.767102 -0.641526 354.257 229.419)" fill="#00FF47" fill-opacity="0.79"/>
<rect width="17.2376" height="114.926" transform="matrix(-0.75413 0.656725 -0.767102 -0.641526 201.314 229.609)" fill="#00FF47"/>
<rect width="17.3162" height="105.789" transform="matrix(0.774076 0.633093 -0.746832 0.665013 336.558 160.878)" fill="#00FF47"/>
<rect width="17.3162" height="105.789" transform="matrix(0.774076 0.633093 -0.746832 0.665013 183.617 161.062)" fill="#17D3BD"/>
<rect width="17.2376" height="114.926" transform="matrix(-0.75413 0.656725 -0.767102 -0.641526 354.257 229.419)" fill="#FF0000" fill-opacity="0.79"/>
<rect width="17.2376" height="114.926" transform="matrix(-0.75413 0.656725 -0.767102 -0.641526 201.314 229.609)" fill="#17D3BD"/>
<rect width="17.3162" height="105.789" transform="matrix(0.774076 0.633093 -0.746832 0.665013 336.558 160.878)" fill="#FF0000" fill-opacity="0.79"/>
<ellipse rx="229.543" ry="223.352" transform="matrix(-0.707103 -0.70711 0.697063 -0.71701 264.001 256.458)" fill="#17D3BD"/>
<ellipse rx="226.814" ry="224.9" transform="matrix(0.999999 -0.00107981 0.00104976 0.999999 242.614 256.481)" fill="#8E2DE2"/>
<ellipse rx="211.618" ry="215.197" transform="matrix(0.999999 -0.00107981 0.00104976 0.999999 256.684 255.895)" fill="#262626"/>
<rect width="13.7821" height="225.179" transform="matrix(-0.848722 0.528839 -0.518114 -0.855312 329.775 328.098)" fill="url(#paint0_linear_160_2)"/>
<path d="M313.517 354.158L301.82 361.446L185.152 168.848L196.849 161.56L313.517 354.158Z" fill="url(#paint1_linear_160_2)"/>
<rect width="28.1407" height="226.042" transform="matrix(0.999999 -0.00107981 0.00104976 0.999999 301.583 135.405)" fill="url(#paint2_linear_160_2)"/>
<rect width="28.1407" height="226.042" transform="matrix(0.999999 -0.00107981 0.00104976 0.999999 184.517 135.531)" fill="url(#paint3_linear_160_2)"/>
</g>
<defs>
<linearGradient id="paint0_linear_160_2" x1="6.89107" y1="0" x2="6.89107" y2="225.179" gradientUnits="userSpaceOnUse">
<stop stop-color="#8E2DE2"/>
<stop offset="1" stop-color="#17D3BD"/>
</linearGradient>
<linearGradient id="paint1_linear_160_2" x1="307.668" y1="357.802" x2="188.595" y2="166.703" gradientUnits="userSpaceOnUse">
<stop stop-color="#8E2DE2"/>
<stop offset="1" stop-color="#17D3BD"/>
</linearGradient>
<linearGradient id="paint2_linear_160_2" x1="14.0704" y1="0" x2="14.0704" y2="226.042" gradientUnits="userSpaceOnUse">
<stop stop-color="#8E2DE2"/>
<stop offset="1" stop-color="#17D3BD"/>
</linearGradient>
<linearGradient id="paint3_linear_160_2" x1="14.0704" y1="0" x2="14.0704" y2="226.042" gradientUnits="userSpaceOnUse">
<stop stop-color="#8E2DE2"/>
<stop offset="1" stop-color="#17D3BD"/>
</linearGradient>
<clipPath id="clip0_160_2">
<rect width="512" height="512" fill="white"/>
</clipPath>
</defs>
</svg>
