<svg width="167" height="165" viewBox="0 0 167 165" fill="none" xmlns="http://www.w3.org/2000/svg">
<path d="M104.065 26.7276C115.565 31.4276 131.265 32.5276 140.665 40.1276C150.065 47.8276 153.365 62.1276 154.365 78.2276C155.365 94.4276 154.065 112.328 144.265 121.928C134.465 131.528 116.265 132.928 99.4646 136.528C82.6646 140.228 67.4646 146.128 52.6646 144.428C37.8646 142.828 23.5646 133.628 16.8646 120.728C10.1646 107.828 11.0646 91.2276 15.4646 78.1276C19.9646 65.1276 28.0646 55.6276 33.9646 46.2276C39.9646 36.8276 43.6646 27.5276 50.6646 20.6276C57.5646 13.8276 67.5646 9.4276 76.3646 11.5276C85.0646 13.5276 92.5646 21.9276 104.065 26.7276Z" fill="#7000FF"/>
<rect x="43" y="63" width="69" height="26" fill="#262626"/>
<path d="M112.2 66L123 74.3478V98L111 89.513L112.2 66Z" fill="#262626"/>
<rect x="54" y="72" width="69" height="26" fill="#262626"/>
<path d="M43 63L54 69.8478V98L43 88.8696V63Z" fill="black"/>
<rect x="61" y="77" width="52" height="17" fill="black"/>
<path d="M44 63H112.902L123 72H53.5038L44 63Z" fill="black"/>
<path d="M65.6274 90H64.4468V82.1733L62.0791 83.043V81.9766L65.4434 80.7134H65.6274V90ZM74.8633 86.0581C74.8633 87.4334 74.6284 88.4554 74.1587 89.124C73.689 89.7926 72.9548 90.127 71.9561 90.127C70.9701 90.127 70.2401 89.8011 69.7661 89.1494C69.2922 88.4935 69.0467 87.516 69.0298 86.2168V84.6489C69.0298 83.2905 69.2646 82.2812 69.7344 81.6211C70.2041 80.9609 70.9404 80.6309 71.9434 80.6309C72.9378 80.6309 73.6699 80.9504 74.1396 81.5894C74.6094 82.2241 74.8506 83.2059 74.8633 84.5347V86.0581ZM73.689 84.4521C73.689 83.4577 73.5493 82.734 73.27 82.2812C72.9907 81.8242 72.5485 81.5957 71.9434 81.5957C71.3424 81.5957 70.9045 81.8221 70.6294 82.2749C70.3543 82.7277 70.2126 83.4238 70.2041 84.3633V86.2422C70.2041 87.2409 70.348 87.9793 70.6357 88.4575C70.9277 88.9315 71.3678 89.1685 71.9561 89.1685C72.5358 89.1685 72.9653 88.9442 73.2446 88.4956C73.5282 88.047 73.6763 87.3403 73.689 86.3755V84.4521ZM80.2271 90H79.0464V82.1733L76.6787 83.043V81.9766L80.043 80.7134H80.2271V90ZM89.4629 86.0581C89.4629 87.4334 89.228 88.4554 88.7583 89.124C88.2886 89.7926 87.5544 90.127 86.5557 90.127C85.5697 90.127 84.8397 89.8011 84.3657 89.1494C83.8918 88.4935 83.6463 87.516 83.6294 86.2168V84.6489C83.6294 83.2905 83.8643 82.2812 84.334 81.6211C84.8037 80.9609 85.54 80.6309 86.543 80.6309C87.5374 80.6309 88.2695 80.9504 88.7393 81.5894C89.209 82.2241 89.4502 83.2059 89.4629 84.5347V86.0581ZM88.2886 84.4521C88.2886 83.4577 88.1489 82.734 87.8696 82.2812C87.5903 81.8242 87.1481 81.5957 86.543 81.5957C85.9421 81.5957 85.5041 81.8221 85.229 82.2749C84.9539 82.7277 84.8122 83.4238 84.8037 84.3633V86.2422C84.8037 87.2409 84.9476 87.9793 85.2354 88.4575C85.5273 88.9315 85.9674 89.1685 86.5557 89.1685C87.1354 89.1685 87.5649 88.9442 87.8442 88.4956C88.1278 88.047 88.2759 87.3403 88.2886 86.3755V84.4521ZM94.8267 90H93.646V82.1733L91.2783 83.043V81.9766L94.6426 80.7134H94.8267V90ZM104.062 86.0581C104.062 87.4334 103.828 88.4554 103.358 89.124C102.888 89.7926 102.154 90.127 101.155 90.127C100.169 90.127 99.4393 89.8011 98.9653 89.1494C98.4914 88.4935 98.2459 87.516 98.229 86.2168V84.6489C98.229 83.2905 98.4639 82.2812 98.9336 81.6211C99.4033 80.9609 100.14 80.6309 101.143 80.6309C102.137 80.6309 102.869 80.9504 103.339 81.5894C103.809 82.2241 104.05 83.2059 104.062 84.5347V86.0581ZM102.888 84.4521C102.888 83.4577 102.749 82.734 102.469 82.2812C102.19 81.8242 101.748 81.5957 101.143 81.5957C100.542 81.5957 100.104 81.8221 99.8286 82.2749C99.5535 82.7277 99.4118 83.4238 99.4033 84.3633V86.2422C99.4033 87.2409 99.5472 87.9793 99.835 88.4575C100.127 88.9315 100.567 89.1685 101.155 89.1685C101.735 89.1685 102.165 88.9442 102.444 88.4956C102.727 88.047 102.875 87.3403 102.888 86.3755V84.4521ZM109.426 90H108.246V82.1733L105.878 83.043V81.9766L109.242 80.7134H109.426V90Z" fill="#7000FF"/>
</svg>
