<svg xmlns="http://www.w3.org/2000/svg" width="167" height="165" fill="none" viewBox="0 0 167 165"><path fill="#7000FF" d="M100.065 27.7276C111.565 32.4276 127.265 33.5276 136.665 41.1276C146.065 48.8276 149.365 63.1276 150.365 79.2276C151.365 95.4276 150.065 113.328 140.265 122.928C130.465 132.528 112.265 133.928 95.4646 137.528C78.6646 141.228 63.4646 147.128 48.6646 145.428C33.8646 143.828 19.5646 134.628 12.8646 121.728C6.16462 108.828 7.06462 92.2276 11.4646 79.1276C15.9646 66.1276 24.0646 56.6276 29.9646 47.2276C35.9646 37.8276 39.6646 28.5276 46.6646 21.6276C53.5646 14.8276 63.5646 10.4276 72.3646 12.5276C81.0646 14.5276 88.5646 22.9276 100.065 27.7276Z"/><rect width="76" height="28" x="35" y="60" fill="#262626"/><path fill="#262626" d="M111.3 60L123 69.913V98L110 87.9217L111.3 60Z"/><rect width="76" height="28" x="47" y="70" fill="#262626"/><path fill="#000" d="M35 60L47 67.4348V98L35 88.087V60Z"/><rect width="57" height="18" x="55" y="75" fill="red" fill-opacity=".79"/><path fill="#000" d="M36 60H111.88L123 70H46.4662L36 60Z"/><path fill="#E90000" fill-opacity=".79" d="M62.5 75L68.1292 92.25H56.8708L62.5 75Z"/><path fill="#E90000" fill-opacity=".79" d="M104.5 75L110.129 92.25H98.8708L104.5 75Z"/><path fill="#E90000" fill-opacity=".79" d="M94.5 75L100.129 92.25H88.8708L94.5 75Z"/><path fill="#E90000" fill-opacity=".79" d="M73.5 75L79.1292 92.25H67.8708L73.5 75Z"/><path fill="#E90000" fill-opacity=".79" d="M79.5 75L85.1292 92.25H73.8708L79.5 75Z"/><rect width="76" height="28" x="35" y="60" fill="#262626"/><path fill="#262626" d="M111.3 60L123 69.913V98L110 87.9217L111.3 60Z"/><rect width="76" height="28" x="47" y="70" fill="#262626"/><path fill="#000" d="M35 60L47 67.4348V98L35 88.087V60Z"/><rect width="57" height="18" x="55" y="75" fill="red" fill-opacity=".79"/><path fill="#000" d="M36 60H111.88L123 70H46.4662L36 60Z"/><path fill="#E90000" fill-opacity=".79" d="M62.5 75L68.1292 92.25H56.8708L62.5 75Z"/><path fill="#E90000" fill-opacity=".79" d="M104.5 75L110.129 92.25H98.8708L104.5 75Z"/><path fill="#E90000" fill-opacity=".79" d="M94.5 75L100.129 92.25H88.8708L94.5 75Z"/><path fill="#E90000" fill-opacity=".79" d="M73.5 75L79.1292 92.25H67.8708L73.5 75Z"/><path fill="#E90000" fill-opacity=".79" d="M79.5 75L85.1292 92.25H73.8708L79.5 75Z"/></svg>